<?xml version="1.0" encoding="UTF-8" standalone="no"?>
<svg
   width="52.8592mm"
   height="45.465866mm"
   viewBox="0 0 52.8592 45.465866"
   version="1.1"
   id="svg265"
   xmlns="http://www.w3.org/2000/svg">
  <defs
     id="defs262" />
  <g
     id="layer1"
     transform="translate(-72.503053,-121.19217)">
    <g
       transform="matrix(0.03527778,0,0,-0.03527778,-4.5043136,186.93475)"
       fill="#ffffff"
       stroke="none"
       id="g38">
      <path
         d="m 2711.7192,1855.7744 c -50,-16 -484,-278 -504,-305 -20,-26 -21,-43 -24,-334 -3,-327.99997 0,-360.99997 45,-419.99997 43,-58 90,-78 348,-151 292,-83 340,-88 386,-42 26,27 29,35 29,99 v 70 l 47,11 c 95,24 163,127 149,223.99997 -13,84 -99,166 -173,167 -21,0 -23,5 -23,50 0,62 -27,119 -69,143 l -31,18 v 202 c 0,225 -3,237 -66,263 -36,15 -75,17 -114,5 z m 58,-258 c 2,-110 -1,-163 -8,-163 -12,0 -391,108 -396,112 -7,8 364,217 381,215 19,-2 20,-10 23,-164 z m -195,-243 c 117,-34 225,-66 240,-72 54,-21 58,-43 55,-318.99997 -3,-221 -5,-253 -19,-262 -13,-8 -73,5 -240,53 -123,35 -236,70 -251,79 -53,29 -58,57 -58,309.99997 0,218 1,232 20,251 11,11 25,20 31,20 5,0 105,-27 222,-60 z"
         id="path20" />
      <path
         d="m 3416.7192,1148.7744 c -73,-38 -105,-91 -105,-173.99997 0,-155 172,-242 298,-150 21,15 46,44 55,63 21,43 22,137.99997 3,174.99997 -19,36 -65,78 -99,91 -41,16 -117,13 -152,-5 z"
         id="path36" />
    </g>
  </g>
</svg>
